<svg xmlns="http://www.w3.org/2000/svg" width="20" height="20" viewBox="0 0 20 20" fill="none">
  <path d="M15.2797 17.2557C16.1634 17.2557 16.8797 16.5393 16.8797 15.6557C16.8797 14.772 16.1634 14.0557 15.2797 14.0557C14.396 14.0557 13.6797 14.772 13.6797 15.6557C13.6797 16.5393 14.396 17.2557 15.2797 17.2557Z" fill="#8C73CB"/>
  <path d="M7.27969 17.2557C8.16334 17.2557 8.87968 16.5393 8.87968 15.6557C8.87968 14.772 8.16334 14.0557 7.27969 14.0557C6.39603 14.0557 5.67969 14.772 5.67969 15.6557C5.67969 16.5393 6.39603 17.2557 7.27969 17.2557Z" fill="#8C73CB"/>
  <path d="M2 2.84798C2 2.84798 5.712 2.79998 5.2 6.04798L4.64805 9.296C4.56619 9.68544 4.57422 10.0884 4.67163 10.4743C4.76903 10.8602 4.95322 11.2187 5.2101 11.5227C5.467 11.8266 5.78986 12.0679 6.1541 12.2283C6.51834 12.3886 6.91435 12.4638 7.31201 12.448H13.712C14.5983 12.4217 15.4495 12.0957 16.1266 11.5232C16.8037 10.9507 17.2667 10.1655 17.44 9.296L17.9921 6.00799C18.0794 5.61416 18.0751 5.20551 17.9795 4.8136C17.8838 4.4217 17.6994 4.05701 17.4404 3.74774C17.1814 3.43846 16.8547 3.19286 16.4857 3.02991C16.1166 2.86697 15.715 2.79105 15.312 2.80799H8.352" fill="#8C73CB"/>
</svg>