<svg width="34" height="34" viewBox="0 0 34 34" fill="none" xmlns="http://www.w3.org/2000/svg">
<g clip-path="url(#clip0_3914_10398)">
<path d="M17.4122 14.8945H17.0999H10.4945L5.22461 22.1422L17.3137 33.9998L17.8117 33.5111L29.4017 22.1422L24.1327 14.8945H17.4122ZM22.9644 16.3191L21.9912 20.6428L18.5474 16.3191H22.9644ZM17.2649 16.7311L21.0116 21.4324H13.598L17.2649 16.7311ZM15.9876 16.3191L12.6299 20.6252V20.6263L11.6628 16.3192H15.9876V16.3191ZM10.5714 17.2094L11.5208 21.4324H7.50009L10.5714 17.2094ZM11.9036 22.6941L15.2281 29.9604L7.81963 22.6941H11.9036ZM17.3137 31.4878L13.2898 22.6941H21.3364L17.3137 31.4878ZM19.3982 29.9604L22.7227 22.6941H26.8056L19.3982 29.9604ZM23.1056 21.4324L24.056 17.2094L27.1263 21.4324H23.1056Z" fill="url(#paint0_linear_3914_10398)"/>
<path d="M33.2844 12.0799C31.564 12.0799 30.9695 11.6483 30.6343 11.3142C30.3012 10.979 29.8686 10.3845 29.8686 8.66417C29.8686 8.59882 29.8624 8.41309 29.6569 8.41309C29.4525 8.41309 29.4452 8.59882 29.4452 8.66417C29.4452 10.3845 29.0125 10.979 28.6784 11.3142C28.3433 11.6483 27.7477 12.0799 26.0294 12.0799C25.963 12.0799 25.7783 12.0871 25.7783 12.2926C25.7783 12.497 25.963 12.5043 26.0294 12.5043C27.7477 12.5043 28.3433 12.937 28.6784 13.2711C29.0125 13.6052 29.4452 14.2008 29.4452 15.9211C29.4452 15.9875 29.4524 16.1712 29.6569 16.1712C29.8624 16.1712 29.8686 15.9875 29.8686 15.9211C29.8686 14.2008 30.3013 13.6052 30.6343 13.2711C30.9695 12.9359 31.564 12.5043 33.2844 12.5043C33.3508 12.5043 33.5354 12.4981 33.5354 12.2916C33.5354 12.0882 33.3508 12.0799 33.2844 12.0799Z" fill="url(#paint1_linear_3914_10398)"/>
<path d="M7.69608 5.62169C10.0607 5.62169 10.8784 6.21729 11.3381 6.67589C11.7977 7.13555 12.3912 7.95421 12.3912 10.3189C12.3912 10.4091 12.4037 10.6623 12.6838 10.6623C12.966 10.6623 12.9743 10.4091 12.9743 10.3189C12.9743 7.95421 13.5688 7.13548 14.0285 6.67589C14.4871 6.21622 15.3048 5.62169 17.6705 5.62169C17.7607 5.62169 18.015 5.61339 18.015 5.33116C18.015 5.05099 17.7608 5.03857 17.6705 5.03857C15.3048 5.03857 14.4871 4.44503 14.0285 3.98643C13.5688 3.52571 12.9743 2.70918 12.9743 0.344449C12.9743 0.254203 12.966 0 12.6838 0C12.4036 0 12.3912 0.254203 12.3912 0.344516C12.3912 2.70918 11.7977 3.52577 11.3381 3.9865C10.8784 4.4451 10.0608 5.03864 7.69608 5.03864C7.60583 5.03864 7.35156 5.05006 7.35156 5.33123C7.35156 5.61133 7.60577 5.62169 7.69608 5.62169Z" fill="url(#paint2_linear_3914_10398)"/>
<path d="M7.60039 13.0155C7.60039 12.8277 7.4302 12.8204 7.37003 12.8204C5.7877 12.8204 5.23985 12.423 4.93272 12.1159C4.62559 11.8077 4.22716 11.2609 4.22716 9.67861C4.22716 9.61844 4.22091 9.44824 4.03205 9.44824C3.84525 9.44824 3.83695 9.61844 3.83695 9.67861C3.83695 11.2609 3.43958 11.8078 3.13245 12.1159C2.82426 12.423 2.27641 12.8204 0.695141 12.8204C0.63398 12.8205 0.464844 12.8277 0.464844 13.0155C0.464844 13.2033 0.63398 13.2106 0.695207 13.2106C2.27654 13.2106 2.82439 13.6091 3.13252 13.9162C3.43964 14.2233 3.83702 14.7712 3.83702 16.3546C3.83702 16.4147 3.84532 16.5839 4.03212 16.5839C4.22098 16.5839 4.22722 16.4147 4.22722 16.3546C4.22722 14.7712 4.62566 14.2233 4.93279 13.9162C5.23992 13.608 5.78777 13.2106 7.3701 13.2106C7.43026 13.2106 7.60039 13.2044 7.60039 13.0155Z" fill="url(#paint3_linear_3914_10398)"/>
</g>
<defs>
<linearGradient id="paint0_linear_3914_10398" x1="5.22461" y1="24.4472" x2="29.4017" y2="24.4472" gradientUnits="userSpaceOnUse">
<stop stop-color="#462D85"/>
<stop offset="1" stop-color="#DB00FF"/>
</linearGradient>
<linearGradient id="paint1_linear_3914_10398" x1="25.7783" y1="12.2921" x2="33.5354" y2="12.2921" gradientUnits="userSpaceOnUse">
<stop stop-color="#462D85"/>
<stop offset="1" stop-color="#DB00FF"/>
</linearGradient>
<linearGradient id="paint2_linear_3914_10398" x1="7.35156" y1="5.33116" x2="18.015" y2="5.33116" gradientUnits="userSpaceOnUse">
<stop stop-color="#462D85"/>
<stop offset="1" stop-color="#DB00FF"/>
</linearGradient>
<linearGradient id="paint3_linear_3914_10398" x1="0.464844" y1="13.016" x2="7.60039" y2="13.016" gradientUnits="userSpaceOnUse">
<stop stop-color="#462D85"/>
<stop offset="1" stop-color="#DB00FF"/>
</linearGradient>
<clipPath id="clip0_3914_10398">
<rect width="34" height="34" fill="white"/>
</clipPath>
</defs>
</svg>
