<svg xmlns="http://www.w3.org/2000/svg" width="16" height="17" viewBox="0 0 16 17" fill="none">
  <path d="M5.33301 11.833L7.99967 14.4997L10.6663 11.833" stroke="#462D85" stroke-linecap="round" stroke-linejoin="round"/>
  <path d="M8 8.5V14.5" stroke="#462D85" stroke-linecap="round" stroke-linejoin="round"/>
  <path d="M13.9204 12.56C14.5 12.1524 14.9347 11.5707 15.1613 10.8994C15.3879 10.2281 15.3947 9.50197 15.1807 8.82651C14.9667 8.15104 14.543 7.56135 13.9712 7.143C13.3993 6.72464 12.709 6.4994 12.0004 6.49996H11.1604C10.9599 5.71854 10.5848 4.99279 10.0632 4.37734C9.54161 3.7619 8.88721 3.2728 8.14925 2.94686C7.41129 2.62092 6.60901 2.46664 5.80279 2.49563C4.99658 2.52463 4.20745 2.73614 3.49481 3.11424C2.78217 3.49234 2.16459 4.02719 1.68857 4.67851C1.21254 5.32983 0.890478 6.08065 0.746618 6.87446C0.602757 7.66826 0.64085 8.48435 0.85803 9.2613C1.07521 10.0383 1.46582 10.7558 2.00044 11.36" stroke="#462D85" stroke-linecap="round" stroke-linejoin="round"/>
</svg>