<svg xmlns="http://www.w3.org/2000/svg" width="25" height="24" viewBox="0 0 25 24" fill="none">
  <path d="M22.786 5.52295V23.9999H2.74023V0H17.2631L19.8355 2.57245L22.786 5.52295Z" fill="#462D85"/>
  <path d="M11.8278 1.60742H2.21387V5.90905H11.8278V1.60742Z" fill="#F2F2F2"/>
  <path d="M5.6622 3.01805C5.61977 2.91559 5.56324 2.82371 5.48552 2.74599C5.4078 2.66827 5.31237 2.60466 5.20282 2.56224C5.08976 2.5163 4.96254 2.49512 4.82121 2.49512H3.76465V5.22301H4.29823V4.19471H4.82121C4.96254 4.19471 5.08976 4.17352 5.20282 4.12759C5.31237 4.08516 5.40776 4.0216 5.48552 3.94384C5.56329 3.86612 5.61982 3.77776 5.6622 3.67177C5.70105 3.5693 5.72229 3.45976 5.72229 3.3467C5.72224 3.23007 5.70105 3.12052 5.6622 3.01805ZM5.0862 3.6152C5.01551 3.68232 4.9166 3.71766 4.79646 3.71766H4.29823V2.96855H4.79646C4.9166 2.96855 5.01555 3.0039 5.0862 3.07454C5.15332 3.14166 5.18866 3.23354 5.18866 3.3466C5.18871 3.4562 5.15337 3.54807 5.0862 3.6152Z" fill="#462D85"/>
  <path d="M8.21355 3.55163C8.21003 3.45624 8.20647 3.37145 8.19588 3.29368C8.18528 3.21591 8.16761 3.14527 8.14286 3.07815C8.11811 3.01454 8.08633 2.95093 8.04391 2.8944C7.94852 2.75659 7.83189 2.65412 7.70116 2.59051C7.56686 2.5269 7.40786 2.49512 7.22059 2.49512H6.23828V5.22301H7.22059C7.40786 5.22301 7.56686 5.19123 7.70116 5.12762C7.83189 5.06401 7.94852 4.96154 8.04391 4.82373C8.08633 4.7672 8.11811 4.70359 8.14286 4.63998C8.16761 4.57285 8.18528 4.50216 8.19588 4.42445C8.20647 4.34673 8.20998 4.26188 8.21355 4.16649C8.21706 4.07462 8.21706 3.97215 8.21706 3.85909C8.21706 3.74602 8.21706 3.64351 8.21355 3.55163ZM7.67997 4.13471C7.67997 4.21599 7.67289 4.2796 7.66581 4.33613C7.65873 4.38915 7.64814 4.4386 7.63403 4.47395C7.61992 4.5128 7.59869 4.54815 7.57398 4.57993C7.48563 4.69299 7.35137 4.74601 7.1747 4.74601H6.76834V2.9686H7.1747C7.35137 2.9686 7.48567 3.02513 7.57398 3.1382C7.59873 3.16998 7.61992 3.2018 7.63403 3.24066C7.64814 3.27952 7.65878 3.32546 7.66581 3.38199C7.67289 3.43501 7.67997 3.50213 7.67997 3.57985C7.68348 3.65762 7.68348 3.75301 7.68348 3.85899C7.68353 3.96507 7.68353 4.05695 7.67997 4.13471Z" fill="#462D85"/>
  <path d="M10.4929 2.9686V2.49512H8.69434V5.22301H9.22791V4.11704H10.3057V3.63999H9.22791V2.9686H10.4929Z" fill="#462D85"/>
  <path d="M5.6622 3.01805C5.61977 2.91559 5.56324 2.82371 5.48552 2.74599C5.4078 2.66827 5.31237 2.60466 5.20282 2.56224C5.08976 2.5163 4.96254 2.49512 4.82121 2.49512H3.76465V5.22301H4.29823V4.19471H4.82121C4.96254 4.19471 5.08976 4.17352 5.20282 4.12759C5.31237 4.08516 5.40776 4.0216 5.48552 3.94384C5.56329 3.86612 5.61982 3.77776 5.6622 3.67177C5.70105 3.5693 5.72229 3.45976 5.72229 3.3467C5.72224 3.23007 5.70105 3.12052 5.6622 3.01805ZM5.0862 3.6152C5.01551 3.68232 4.9166 3.71766 4.79646 3.71766H4.29823V2.96855H4.79646C4.9166 2.96855 5.01555 3.0039 5.0862 3.07454C5.15332 3.14166 5.18866 3.23354 5.18866 3.3466C5.18871 3.4562 5.15337 3.54807 5.0862 3.6152Z" fill="#462D85"/>
  <path opacity="0.08" d="M22.786 5.52277V23.9997H2.74023V19.6676L12.1112 10.2966L12.666 9.74184L12.9734 9.43439L13.4858 8.92205L14.0935 8.31427L19.8355 2.57227L22.786 5.52277Z" fill="#040000"/>
  <path d="M22.7863 5.52356H17.2627V0L22.7863 5.52356Z" fill="#462D85"/>
  <path d="M19.924 17.3742C19.8074 17.1693 19.6484 16.9749 19.4505 16.7983C19.288 16.6499 19.0972 16.512 18.8816 16.3848C18.0123 15.8725 16.7721 15.6251 15.0865 15.6251H14.9169C14.8251 15.5403 14.7297 15.4555 14.6307 15.3672C13.9912 14.7912 13.4823 14.1658 13.0866 13.4697C13.8639 11.7559 14.235 10.2294 14.189 8.92902C14.1819 8.70993 14.1502 8.50499 14.0936 8.31416C14.0088 8.00676 13.8675 7.73465 13.6696 7.51204C13.6661 7.50852 13.6661 7.50852 13.6625 7.50496C13.348 7.15162 12.9099 6.9502 12.4646 6.9502C12.0159 6.9502 11.6025 7.14454 11.3021 7.50145C11.0053 7.85479 10.8463 8.33891 10.8392 8.90779C10.8286 9.77704 10.8992 10.6004 11.0477 11.3601C11.0618 11.4201 11.0724 11.4802 11.0866 11.5402C11.235 12.2293 11.4541 12.883 11.7367 13.4908C11.4046 14.1657 11.0689 14.7487 10.8356 15.1445C10.659 15.4448 10.4646 15.7593 10.2632 16.0738C9.35509 16.2364 8.58475 16.4342 7.9134 16.6816C7.00529 17.0102 6.27737 17.4342 5.75439 17.9395C5.41515 18.2646 5.18546 18.6109 5.0724 18.9713C4.95226 19.3424 4.95934 19.7134 5.09359 20.0455C5.21725 20.3529 5.43985 20.6109 5.73671 20.7876C5.8074 20.83 5.8816 20.8653 5.95932 20.8971C6.1855 20.989 6.43281 21.0384 6.69076 21.0384C7.28795 21.0384 7.90276 20.7805 8.42218 20.3176C9.39039 19.4519 10.3904 18.0597 10.9805 17.1798C11.4646 17.1056 11.9911 17.042 12.5847 16.9784C13.2844 16.9077 13.9028 16.8653 14.4646 16.8441C14.6378 16.9995 14.8038 17.1479 14.9628 17.2893C15.8462 18.0772 16.5176 18.6462 17.1254 19.0454C17.1254 19.049 17.1289 19.049 17.1324 19.049C17.3727 19.208 17.6024 19.3387 17.8321 19.4447C18.0901 19.5649 18.3515 19.6285 18.6201 19.6285C18.9593 19.6285 19.2773 19.526 19.5423 19.3387C19.8109 19.1444 20.0052 18.8653 20.0936 18.5508C20.1961 18.1728 20.136 17.7523 19.924 17.3742ZM12.1113 10.2965C12.0618 9.85832 12.0406 9.40251 12.0477 8.92195C12.0548 8.46613 12.2208 8.15868 12.4646 8.15868C12.6484 8.15868 12.8427 8.32476 12.931 8.64276C12.9558 8.73815 12.9735 8.8477 12.977 8.97135C12.9841 9.11976 12.9805 9.27524 12.9735 9.43424C12.9523 9.88302 12.8745 10.36 12.7403 10.8724C12.659 11.2011 12.553 11.5438 12.4223 11.9007C12.2739 11.399 12.1678 10.8654 12.1113 10.2965ZM6.21732 19.5968C6.15723 19.4484 6.2244 19.1622 6.5919 18.8088C7.15375 18.2717 8.03359 17.8477 9.25975 17.5261C9.02654 17.8441 8.79685 18.1339 8.57425 18.3989C8.23501 18.8088 7.90993 19.1551 7.61664 19.4166C7.36576 19.6427 7.09014 19.7841 6.82867 19.8194C6.78273 19.8265 6.73679 19.83 6.69085 19.83C6.46112 19.83 6.27386 19.7382 6.21732 19.5968ZM11.8639 15.8406L11.8887 15.8018L11.8498 15.8089C11.8569 15.7912 11.8675 15.7735 11.8781 15.7594C12.0265 15.5085 12.2138 15.187 12.4152 14.816L12.4329 14.8548L12.4788 14.7594C12.6272 14.9714 12.7898 15.1799 12.9594 15.3813C13.0406 15.4767 13.1254 15.5686 13.2102 15.6605L13.1537 15.664L13.2032 15.7099C13.0583 15.7205 12.9063 15.7347 12.7544 15.7488C12.659 15.7594 12.56 15.7664 12.4611 15.777C12.2562 15.7982 12.0548 15.8195 11.8639 15.8406ZM17.8109 18.0456C17.3904 17.777 16.9205 17.3989 16.341 16.8936C17.1643 16.9784 17.8109 17.1586 18.2703 17.4272C18.4717 17.5438 18.6236 17.6639 18.7261 17.7805C18.8957 17.9607 18.9558 18.1233 18.924 18.2328C18.8957 18.3424 18.772 18.4166 18.6201 18.4166C18.5317 18.4166 18.4399 18.3954 18.3444 18.3494C18.1819 18.2717 18.0123 18.1763 17.8321 18.0597C17.825 18.0597 17.818 18.0526 17.8109 18.0456Z" fill="#F2F2F2"/>
</svg>