<svg width="20" height="20" viewBox="0 0 20 20" fill="none" xmlns="http://www.w3.org/2000/svg">
<g id="send-alt-1-svgrepo-com 1">
<path id="Vector" d="M9.58358 10.0001H4.5156M4.37195 10.6644L3.53465 13.1656C3.07607 14.5354 2.84678 15.2203 3.01133 15.6421C3.15422 16.0084 3.46113 16.2861 3.83983 16.3918C4.27593 16.5135 4.93459 16.2171 6.25193 15.6243L14.6973 11.8239C15.9831 11.2452 16.626 10.956 16.8247 10.5541C16.9973 10.2049 16.9973 9.79517 16.8247 9.446C16.626 9.04417 15.9831 8.75483 14.6973 8.17621L6.23736 4.36927C4.92399 3.77826 4.26732 3.48276 3.83166 3.60398C3.45331 3.70926 3.14643 3.98621 3.00304 4.35182C2.83793 4.77281 3.06477 5.45626 3.51846 6.82314L4.37358 9.3995C4.45149 9.63425 4.49046 9.75166 4.50583 9.87166C4.51948 9.97825 4.51934 10.0861 4.50543 10.1926C4.48973 10.3126 4.45048 10.4298 4.37195 10.6644Z" stroke="white" stroke-linecap="round" stroke-linejoin="round"/>
</g>
</svg>
