<svg xmlns="http://www.w3.org/2000/svg" width="20" height="20" viewBox="0 0 20 20" fill="none">
  <path fill-rule="evenodd" clip-rule="evenodd" d="M3.07573 7.08939C3.07573 9.46189 4.39406 11.4977 6.2474 11.4977C8.0999 11.4977 9.41656 9.46189 9.41656 7.08939C9.41656 4.71772 8.29323 3.33105 6.2474 3.33105C4.20073 3.33105 3.07573 4.71772 3.07573 7.08939ZM1.1049 15.9936C1.78823 16.4411 3.50406 16.6644 6.2499 16.6644C8.99573 16.6644 10.7107 16.4411 11.3949 15.9944C11.4569 15.9538 11.5069 15.8974 11.5399 15.8311C11.5729 15.7647 11.5875 15.6908 11.5824 15.6169C11.4557 13.7602 9.67656 12.8311 6.24656 12.8311C2.81573 12.8311 1.03906 13.7602 0.917397 15.6177C0.912569 15.6914 0.927384 15.765 0.960328 15.831C0.993271 15.897 1.04316 15.9531 1.1049 15.9936ZM18.9224 8.92272C19.002 8.84585 19.0655 8.75389 19.1091 8.65222C19.1528 8.55055 19.1758 8.4412 19.1768 8.33055C19.1777 8.21991 19.1567 8.11017 19.1147 8.00776C19.0728 7.90535 19.011 7.8123 18.9327 7.73406C18.8545 7.65582 18.7614 7.59394 18.659 7.55204C18.5566 7.51014 18.4469 7.48905 18.3362 7.49001C18.2256 7.49097 18.1162 7.51396 18.0146 7.55764C17.9129 7.60131 17.8209 7.6648 17.7441 7.74439L14.1666 11.3219L12.2557 9.41105C12.0986 9.25926 11.8881 9.17526 11.6696 9.17716C11.4511 9.17906 11.2421 9.2667 11.0875 9.42121C10.933 9.57571 10.8454 9.78472 10.8435 10.0032C10.8416 10.2217 10.9256 10.4322 11.0774 10.5894L13.5774 13.0894C13.7337 13.2456 13.9456 13.3334 14.1666 13.3334C14.3875 13.3334 14.5995 13.2456 14.7557 13.0894L18.9224 8.92272Z" fill="#462D85"/>
</svg>