<svg width="16" height="17" viewBox="0 0 16 17"     fill="none" xmlns="http://www.w3.org/2000/svg">
<g id="users">
<path id="Vector" d="M11.3332 14.5V13.1667C11.3332 12.4594 11.0522 11.7811 10.5521 11.281C10.052 10.781 9.37375 10.5 8.6665 10.5H3.33317C2.62593 10.5 1.94765 10.781 1.44755 11.281C0.947456 11.7811 0.666504 12.4594 0.666504 13.1667V14.5" stroke="#777" stroke-linecap="round" stroke-linejoin="round"/>
<path id="Vector_2" d="M6.00016 7.83333C7.47292 7.83333 8.66683 6.63943 8.66683 5.16667C8.66683 3.69391 7.47292 2.5 6.00016 2.5C4.5274 2.5 3.3335 3.69391 3.3335 5.16667C3.3335 6.63943 4.5274 7.83333 6.00016 7.83333Z" stroke="#777" stroke-linecap="round" stroke-linejoin="round"/>
<path id="Vector_3" d="M15.3335 14.5002V13.1669C15.3331 12.5761 15.1364 12.0021 14.7744 11.5351C14.4124 11.0682 13.9056 10.7346 13.3335 10.5869" stroke="#777" stroke-linecap="round" stroke-linejoin="round"/>
<path id="Vector_4" d="M10.6665 2.58691C11.2401 2.73378 11.7485 3.06738 12.1116 3.53512C12.4747 4.00286 12.6717 4.57813 12.6717 5.17025C12.6717 5.76236 12.4747 6.33763 12.1116 6.80537C11.7485 7.27311 11.2401 7.60671 10.6665 7.75358" stroke="#777" stroke-linecap="round" stroke-linejoin="round"/>
</g>
</svg>
